<svg width="190" height="190" viewBox="0 0 190 190" fill="none" xmlns="http://www.w3.org/2000/svg">
<rect width="190" height="190" rx="15" fill="#E07A5F"/>
<path d="M26 59.6H164V140.1C164 152.803 153.703 163.1 141 163.1H49C36.2975 163.1 26 152.803 26 140.1V59.6Z" fill="#FBF6F2"/>
<path d="M26 51.55C26 40.7528 34.7528 32 45.55 32H144.45C155.247 32 164 40.7528 164 51.55V51.55H26V51.55Z" fill="#FBF6F2"/>
<rect x="39.8" y="72.25" width="23" height="23" rx="5.75" fill="#E07A5F"/>
<rect x="83.5" y="72.25" width="23" height="23" rx="5.75" fill="#E07A5F"/>
<rect x="127.2" y="72.25" width="23" height="23" rx="5.75" fill="#E07A5F"/>
<rect x="39.8" y="115.95" width="23" height="23" rx="5.75" fill="#E07A5F"/>
<rect x="83.5" y="115.95" width="23" height="23" rx="5.75" fill="#E07A5F"/>
<rect x="127.2" y="115.95" width="23" height="23" rx="5.75" fill="#E07A5F"/>
</svg>
