<svg width="144" height="144" viewBox="0 0 144 144" fill="none" xmlns="http://www.w3.org/2000/svg">
<rect width="144" height="144" rx="11.3684" fill="#E07A5F"/>
<path d="M30 51H114V99.9058C114 107.69 107.69 114 99.9058 114H44.0942C36.3102 114 30 107.69 30 99.9058V51Z" fill="#FBF6F2"/>
<path d="M30 44.0942C30 36.3102 36.3102 30 44.0942 30H99.9058C107.69 30 114 36.3102 114 44.0942V45H30V44.0942Z" fill="#FBF6F2"/>
<rect x="38.0144" y="58.4964" width="14.0942" height="14.0942" rx="3.52355" fill="#E07A5F"/>
<rect x="64.7934" y="58.4964" width="14.0942" height="14.0942" rx="3.52355" fill="#E07A5F"/>
<rect x="91.5723" y="58.4964" width="14.0942" height="14.0942" rx="3.52355" fill="#E07A5F"/>
<rect x="38.0144" y="85.2753" width="14.0942" height="14.0942" rx="3.52355" fill="#E07A5F"/>
<rect x="64.7934" y="85.2753" width="14.0942" height="14.0942" rx="3.52355" fill="#E07A5F"/>
<rect x="91.5723" y="85.2753" width="14.0942" height="14.0942" rx="3.52355" fill="#E07A5F"/>
</svg>
